<?xml version="1.0" standalone="no"?>
<!DOCTYPE svg PUBLIC "-//W3C//DTD SVG 20010904//EN"
 "http://www.w3.org/TR/2001/REC-SVG-20010904/DTD/svg10.dtd">
<svg version="1.0" xmlns="http://www.w3.org/2000/svg"
 width="768.000000pt" height="768.000000pt" viewBox="0 0 768.000000 768.000000"
 preserveAspectRatio="xMidYMid meet">
<metadata>
Created by potrace 1.14, written by Peter Selinger 2001-2017
</metadata>
<g transform="translate(0.000000,768.000000) scale(0.100000,-0.100000)"
fill="#000000" stroke="none">
<path d="M1374 5081 c-687 -688 -1248 -1256 -1246 -1262 3 -13 2483 -2489
2493 -2489 3 0 286 280 628 622 342 341 623 619 626 617 2 -2 285 -284 628
-626 l623 -623 1253 1250 c1122 1119 1252 1252 1240 1267 -8 9 -571 574 -1253
1255 l-1239 1239 -623 -623 c-342 -343 -626 -622 -631 -621 -4 1 -287 282
-629 623 l-621 621 -1249 -1250z"/>
</g>
</svg>
